<?xml version="1.0" standalone="no"?>
<!DOCTYPE svg PUBLIC "-//W3C//DTD SVG 20010904//EN"
 "http://www.w3.org/TR/2001/REC-SVG-20010904/DTD/svg10.dtd">
<svg version="1.0" xmlns="http://www.w3.org/2000/svg"
 width="255.000000pt" height="198.000000pt" viewBox="0 0 255.000000 198.000000"
 preserveAspectRatio="xMidYMid meet">

<g transform="translate(0.000000,198.000000) scale(0.100000,-0.100000)"
fill="#000000" stroke="none">
<path d="M1050 726 l0 -716 215 0 215 0 0 280 0 280 71 0 c55 0 77 -5 99 -20
29 -20 109 -154 240 -402 l73 -138 240 0 c187 0 238 3 234 13 -4 10 -218 376
-299 511 -24 40 -78 73 -156 97 -42 12 -41 28 1 29 10 0 52 14 93 31 92 38
164 104 202 186 24 53 27 69 27 173 0 110 -1 118 -33 182 -45 91 -110 144
-231 186 -39 13 -116 16 -518 19 l-473 4 0 -715z m786 370 c30 -30 34 -40 34
-84 0 -40 -6 -57 -26 -81 -35 -42 -77 -51 -231 -51 l-133 0 0 125 0 125 161 0
161 0 34 -34z"/>
</g>
</svg>
